<svg xmlns="http://www.w3.org/2000/svg" xml:space="preserve" width="2794.178" height="2794.251" viewBox="0 0 739.293 739.312"><path d="M-258.672 648.433c.34-.089.895-.089 1.234 0 .34.089.062.161-.617.161-.68 0-.957-.072-.617-.16m30.345 0c.343-.09.82-.084 1.059.012.238.097-.042.17-.625.163-.582-.007-.777-.086-.434-.176m-37.394-.354c.343-.09.82-.083 1.058.013.239.097-.042.17-.624.163s-.778-.086-.434-.176m44.45 0c.343-.09.82-.083 1.058.013.239.097-.042.17-.624.163s-.778-.086-.434-.176m-49.572-.342a1.36 1.36 0 0 1 .882 0c.242.098.044.178-.441.178s-.684-.08-.441-.178m55.216-.01c.343-.09.82-.084 1.059.013.238.096-.042.17-.625.162-.582-.007-.777-.086-.434-.175m-59.802-.342a1.36 1.36 0 0 1 .882 0c.242.098.044.178-.441.178s-.684-.08-.441-.178m64.227-.007c.255-.102.56-.09.676.027.118.118-.09.201-.463.186-.41-.017-.494-.1-.213-.213m-67.733-.353c.255-.102.559-.09.676.028s-.091.2-.463.185c-.41-.017-.495-.1-.213-.213m71.614 0c.254-.102.559-.09.676.028s-.091.2-.463.185c-.411-.017-.495-.1-.213-.213m-75.142-.353c.255-.102.56-.09.676.028.118.117-.09.2-.463.185-.41-.017-.494-.1-.213-.213m78.67 0c.254-.102.559-.09.676.028s-.091.2-.463.185c-.411-.017-.495-.1-.213-.213m-81.845-.353c.255-.102.56-.09.676.028.118.117-.09.2-.463.186-.41-.017-.494-.101-.213-.214m85.02 0c.254-.102.559-.09.676.028s-.091.2-.463.186c-.411-.017-.495-.101-.213-.214m-93.487-1.058c.255-.102.56-.09.677.028s-.091.2-.463.185c-.411-.017-.495-.1-.214-.213m101.953 0c.255-.102.56-.09.676.028.118.117-.09.2-.463.185-.41-.017-.494-.1-.213-.213m-104.422-.353c.255-.102.559-.09.676.028s-.09.2-.463.185c-.41-.017-.494-.1-.213-.213m106.892 0c.254-.102.559-.09.676.028s-.091.2-.463.185c-.411-.017-.495-.1-.213-.213m-293.49-84.69c-.44-.56-.427-.572.133-.133.588.46.774.75.484.75-.073 0-.351-.278-.617-.617m479.822.484c0-.073.278-.351.618-.617.56-.44.572-.427.133.133-.46.588-.75.774-.75.484m2.47-2.117c0-.073.278-.35.617-.617.56-.439.572-.426.133.133-.46.588-.75.775-.75.484m-487.749-3.13-.672-.793.794.672c.746.631.954.915.672.915-.067 0-.424-.357-.794-.794m490.924.308c0-.073.278-.35.617-.617.56-.439.572-.426.133.133-.46.588-.75.775-.75.484m-494.452-3.483-.672-.793.794.672c.437.37.794.727.794.793 0 .283-.284.074-.916-.672M6 552.37c.351-.388.718-.706.815-.706s-.11.318-.462.706c-.351.388-.718.705-.815.705s.11-.317.462-.705m5.115-4.763c.659-.679 1.276-1.235 1.374-1.235.097 0-.363.556-1.02 1.235-.66.68-1.277 1.235-1.374 1.235s.362-.556 1.02-1.235m-508.551-.264-1.036-1.147 1.146 1.036c.631.57 1.147 1.086 1.147 1.147 0 .272-.291.032-1.257-1.036m-14.637-14.64-1.216-1.324 1.323 1.216c1.231 1.132 1.485 1.43 1.216 1.43-.06 0-.654-.595-1.323-1.323m536.947 1.212c0-.06.516-.577 1.146-1.147l1.147-1.036-1.036 1.147c-.966 1.068-1.257 1.308-1.257 1.036m-541.54-6.152-.856-.97.97.855c.534.47.97.907.97.97 0 .277-.286.052-1.085-.855m547.184.089c.456-.485.908-.882 1.005-.882s-.196.397-.652.882-.908.882-1.005.882.196-.397.652-.882m-550.19-3.44-.672-.794.793.672c.746.632.955.916.672.916-.066 0-.424-.357-.793-.794m553.189.088c.35-.388.718-.705.815-.705s-.111.317-.462.705-.718.706-.815.706.11-.318.462-.706m-555.847-3.087c-.438-.56-.426-.572.134-.133.587.461.774.75.484.75-.074 0-.351-.277-.618-.617m558.14.485c0-.074.278-.351.617-.618.56-.439.572-.426.133.133-.46.588-.75.775-.75.485m-560.256-2.954c-.44-.56-.427-.572.133-.133.588.46.774.75.484.75-.073 0-.351-.277-.617-.617m562.372.484c0-.073.278-.35.618-.617.56-.439.572-.427.133.133-.46.588-.75.774-.75.484m-647.319-189.515c.017-.41.1-.494.213-.213.102.255.09.559-.028.676s-.2-.09-.185-.463m732.72 0c.016-.41.1-.494.213-.213.102.255.09.559-.028.676s-.2-.09-.185-.463m-733.778-8.466c.017-.411.1-.495.213-.214.102.255.09.56-.028.677s-.2-.092-.185-.463m734.836 0c.017-.411.1-.495.213-.214.102.255.09.56-.028.677s-.2-.092-.185-.463m-735.189-3.176c.017-.41.1-.494.213-.213.102.255.09.56-.028.677s-.2-.092-.185-.463m735.542 0c.017-.41.1-.494.213-.213.102.255.09.56-.028.677s-.2-.092-.185-.463m-735.895-3.527c.017-.411.1-.495.213-.213.102.254.09.559-.028.676s-.2-.091-.185-.463m736.247 0c.017-.411.101-.495.214-.213.101.254.089.559-.028.676-.118.117-.2-.091-.186-.463m-736.6-3.88c.017-.412.101-.495.214-.214.102.255.089.559-.028.676s-.2-.09-.185-.463m736.953 0c.017-.412.1-.495.213-.214.102.255.09.559-.028.676s-.2-.09-.185-.463m-737.277-4.381c0-.485.08-.684.177-.441.098.242.098.64 0 .882-.097.242-.177.044-.177-.441m737.658 0c0-.485.08-.684.178-.441.098.242.098.64 0 .882s-.178.044-.178-.441m-737.998-5.468c.007-.582.086-.778.176-.434.089.343.083.819-.014 1.058-.096.239-.17-.042-.162-.624m738.364 0c.007-.582.086-.778.175-.434.09.343.084.819-.013 1.058-.096.239-.17-.042-.162-.624m-738.697-7.056c.004-.776.076-1.052.16-.613.085.439.082 1.074-.006 1.411s-.158-.022-.154-.798m739.07 0c.004-.776.076-1.052.16-.613.085.439.081 1.074-.007 1.411s-.157-.022-.153-.798m-739.07-30.339c.004-.776.076-1.052.16-.613.085.439.082 1.074-.006 1.411-.089.338-.158-.021-.154-.798m739.07 0c.004-.776.076-1.052.16-.613.085.439.081 1.074-.007 1.411-.088.338-.157-.021-.153-.798m-738.737-7.055c.007-.582.086-.778.176-.434.089.343.083.819-.014 1.058-.096.239-.17-.042-.162-.624m738.364 0c.007-.582.086-.778.175-.434.09.343.084.819-.013 1.058-.096.239-.17-.042-.162-.624m-738.024-5.115c0-.486.08-.684.177-.441.098.242.098.639 0 .881-.097.243-.177.045-.177-.44m737.658 0c0-.486.08-.684.178-.441.098.242.098.639 0 .881-.098.243-.178.045-.178-.44m-737.306-4.587c0-.485.08-.683.178-.44.098.242.098.639 0 .881-.098.243-.178.044-.178-.44m736.953 0c0-.485.08-.683.178-.44.098.242.098.639 0 .881-.098.243-.178.044-.178-.44m-736.628-3.733c.017-.411.1-.495.213-.213.102.254.09.559-.028.676s-.2-.091-.185-.463m736.247 0c.017-.411.101-.495.214-.213.101.254.089.559-.028.676-.118.117-.2-.091-.186-.463m-735.894-3.528c.017-.41.1-.495.213-.213.102.255.09.559-.028.676s-.2-.091-.185-.463m735.542 0c.017-.41.1-.495.213-.213.102.255.09.559-.028.676s-.2-.091-.185-.463m-735.19-3.175c.018-.41.101-.495.214-.213.102.255.09.559-.028.676s-.2-.091-.185-.463m734.837 0c.017-.41.1-.495.213-.213.102.255.09.559-.028.676s-.2-.091-.185-.463m-733.778-8.467c.017-.41.1-.494.213-.213.102.255.09.56-.028.676-.117.118-.2-.09-.185-.463m732.72 0c.016-.41.1-.494.213-.213.102.255.09.56-.028.676-.117.118-.2-.09-.185-.463M-524.755 39.296c0-.073.278-.351.617-.617.56-.44.572-.427.134.133-.461.587-.751.774-.751.484m562.988-.484c-.439-.56-.426-.572.133-.133.588.46.775.75.485.75-.074 0-.351-.278-.618-.617m-560.871-1.986c0-.073.277-.35.617-.617.56-.439.572-.426.133.133-.46.588-.75.775-.75.484m558.755-.484c-.44-.56-.427-.572.133-.133.587.46.774.75.484.75-.073 0-.351-.277-.617-.617m-2.635-2.998-.672-.794.794.672c.746.631.954.915.672.915-.067 0-.424-.357-.794-.793m-553.298.307c0-.073.278-.35.617-.617.56-.439.572-.426.133.133-.46.588-.75.775-.75.484m3.351-3.747c.351-.388.718-.705.815-.705s-.11.317-.462.705c-.351.388-.718.706-.815.706s.111-.318.462-.706m546.772-.088-.672-.794.794.672c.437.37.794.727.794.794 0 .282-.284.074-.916-.672m-543.068-3.903c0-.06.516-.577 1.147-1.146l1.146-1.037-1.036 1.147c-.966 1.069-1.257 1.309-1.257 1.036m538.32-1.212-1.215-1.323 1.322 1.215c.728.67 1.323 1.264 1.323 1.323 0 .27-.298.016-1.43-1.215m-523.503-13.605c0-.06.516-.576 1.147-1.146l1.146-1.036-1.036 1.146c-.966 1.069-1.257 1.309-1.257 1.036M10.743 9.884 9.527 8.56l1.323 1.216c1.231 1.131 1.485 1.43 1.216 1.43-.06 0-.655-.595-1.323-1.323m-502.866-4.322c.351-.388.718-.705.815-.705s-.111.317-.462.705-.718.706-.815.706.11-.318.462-.706M5.966 5.474l-.672-.794.793.672c.437.37.794.727.794.794 0 .283-.284.074-.915-.672m-494.561-3.087c.35-.388.718-.705.815-.705s-.111.317-.463.705c-.35.388-.717.706-.814.706s.11-.318.462-.706M2.438 2.3l-.672-.794.794.672c.745.632.954.916.672.916-.067 0-.425-.357-.794-.794M-485.95.138c0-.074.277-.352.617-.618.56-.439.572-.426.133.133-.46.588-.75.775-.75.485M-.572-.347C-1.012-.907-1-.919-.44-.48c.588.461.774.75.484.75-.073 0-.351-.277-.617-.617M-483.48-1.979c0-.073.278-.351.617-.617.56-.44.572-.427.134.133-.461.587-.751.774-.751.484m480.438-.484c-.439-.56-.426-.572.133-.133.588.46.775.75.485.75-.074 0-.351-.278-.618-.617m-293.532-84.643c.255-.102.559-.09.676.027.117.118-.09.201-.463.186-.41-.017-.494-.1-.213-.213m106.892 0c.254-.102.559-.09.676.027.117.118-.091.201-.463.186-.411-.017-.495-.1-.213-.213m-104.423-.353c.255-.102.56-.09.677.028s-.091.2-.463.185c-.411-.017-.495-.1-.214-.213m101.953 0c.255-.102.56-.09.676.028.118.117-.09.2-.463.185-.41-.017-.494-.1-.213-.213m-93.486-1.058c.255-.102.56-.09.676.027.118.118-.09.201-.463.186-.41-.017-.494-.1-.213-.213m85.02 0c.254-.102.559-.09.676.027.117.118-.091.201-.463.186-.411-.017-.495-.1-.213-.213m-81.845-.353c.255-.102.56-.09.676.028.118.117-.09.2-.463.185-.41-.017-.494-.1-.213-.213m78.67 0c.254-.102.559-.09.676.028s-.091.2-.463.185c-.411-.017-.495-.1-.213-.213m-75.142-.353c.255-.102.559-.09.676.028s-.091.2-.463.185c-.41-.017-.495-.1-.213-.213m71.614 0c.254-.102.559-.09.676.028s-.091.2-.463.185c-.411-.017-.495-.1-.213-.213m-67.734-.353c.255-.102.56-.09.677.028s-.091.2-.463.185c-.411-.017-.495-.1-.214-.213m63.831.007c.243-.097.64-.097.882 0 .243.098.044.178-.44.178-.486 0-.684-.08-.442-.178m-59.789-.363c.343-.09.82-.084 1.058.013.24.097-.042.17-.624.163s-.777-.087-.434-.176m55.203.01c.243-.097.64-.097.882 0 .243.099.044.179-.441.179s-.683-.08-.44-.178m-49.558-.363c.343-.09.819-.083 1.058.013.239.097-.042.17-.624.163s-.778-.086-.434-.176m44.45 0c.343-.09.819-.083 1.058.013.239.097-.042.17-.624.163s-.778-.086-.434-.176m-37.395-.353c.343-.09.82-.083 1.058.013.24.097-.042.17-.624.163s-.777-.086-.434-.176m29.98.002c.339-.09.895-.09 1.234 0 .34.088.062.161-.617.161-.68 0-.957-.073-.618-.161" style="fill:#f6fabb" transform="translate(612.508 90.704)"/><path d="M-255.67 648.427c.44-.085 1.074-.081 1.411.007.338.088-.021.157-.797.153-.777-.004-1.053-.076-.614-.16m24.342 0c.439-.085 1.074-.081 1.411.007s-.022.157-.798.153-1.052-.076-.613-.16m-32.085-.344c.255-.102.56-.09.676.027.118.118-.09.2-.463.186-.41-.017-.494-.1-.213-.214m40.378-.003c.343-.09.82-.084 1.058.013.239.096-.042.17-.624.162-.582-.007-.777-.086-.434-.175m-46.397-.342a1.36 1.36 0 0 1 .882 0c.242.097.044.178-.441.178s-.684-.08-.441-.178m52.211 0a1.36 1.36 0 0 1 .882 0c.242.097.044.178-.441.178s-.684-.08-.441-.178m-56.775-.36c.254-.102.559-.09.676.027s-.091.2-.463.186c-.411-.017-.495-.101-.213-.214m61.361.006a1.36 1.36 0 0 1 .882 0c.243.098.044.178-.441.178s-.683-.08-.44-.178m-65.242-.36c.255-.102.56-.09.676.028.118.117-.09.2-.463.186-.41-.017-.494-.101-.213-.214m69.497 0c.255-.102.56-.09.677.028s-.091.2-.463.186c-.411-.017-.495-.101-.214-.214m3.528-.352c.255-.102.56-.09.676.027.118.118-.09.201-.463.186-.41-.017-.494-.1-.213-.213m-82.903-.706c.255-.102.56-.09.677.028s-.091.2-.463.185c-.411-.017-.495-.1-.214-.213m89.253 0c.255-.102.56-.09.676.028.118.117-.09.2-.463.185-.41-.017-.494-.1-.213-.213M-486.7 557.042c-.439-.56-.426-.572.133-.133.588.461.775.75.484.75-.073 0-.35-.277-.617-.617m-3.175-2.822c-.439-.56-.426-.572.133-.133.588.46.775.75.484.75-.073 0-.35-.277-.617-.617m493.228.484c0-.073.278-.35.618-.617.56-.439.572-.426.133.133-.461.588-.75.775-.75.484m-496.92-3.835-.673-.794.794.672c.437.37.794.727.794.794 0 .282-.284.074-.916-.672m500.977.088c.351-.388.718-.706.815-.706s-.11.318-.462.706c-.351.388-.718.706-.815.706s.111-.318.462-.706m-507.31-6.085-1.395-1.5 1.499 1.395c1.394 1.297 1.661 1.604 1.394 1.604-.057 0-.732-.675-1.499-1.5m513.66.088c.758-.776 1.457-1.411 1.555-1.411s-.444.635-1.202 1.41c-.758.777-1.457 1.412-1.554 1.412s.443-.635 1.201-1.411m-522.993-9.349c-.857-.873-1.478-1.587-1.381-1.587s.877.714 1.734 1.587 1.479 1.588 1.382 1.588-.878-.715-1.735-1.588m532.327.088c1.462-1.557 1.779-1.837 1.779-1.572 0 .056-.754.81-1.676 1.675l-1.676 1.573zm-538.181-6.35-.672-.793.794.672c.436.37.793.726.793.793 0 .283-.284.074-.915-.672m544.017.089c.35-.388.718-.706.815-.706s-.111.318-.463.706c-.35.388-.717.705-.814.705s.11-.317.462-.705m-547.38-3.793c-.439-.56-.426-.572.133-.133.34.266.617.544.617.617 0 .29-.29.104-.75-.484m550.378.484c0-.073.278-.35.618-.617.56-.439.572-.426.133.133-.461.588-.75.775-.75.484m-553.2-3.659c-.44-.56-.427-.572.133-.133.588.46.774.75.484.75-.073 0-.351-.277-.617-.617m556.022.484c0-.073.278-.35.618-.617.56-.439.572-.426.133.133-.46.588-.75.775-.75.484M-610.1 323.562c.017-.41.101-.494.214-.213.102.255.09.559-.028.676s-.2-.09-.185-.463m-1.058-9.878c.017-.41.1-.494.213-.213.102.255.09.56-.028.676-.117.118-.2-.09-.185-.463m736.247 0c.017-.41.101-.494.214-.213.101.255.089.56-.028.676-.118.118-.2-.09-.186-.463m-736.572-4.027c0-.485.08-.684.178-.441.098.242.098.64 0 .882s-.178.044-.178-.441m736.953 0c0-.485.08-.684.178-.441.098.242.098.64 0 .882s-.178.044-.178-.441m-737.305-4.586c0-.485.08-.684.177-.441.098.242.098.64 0 .882-.097.242-.177.044-.177-.441m737.658 0c0-.485.08-.684.178-.441.098.242.098.64 0 .882s-.178.044-.178-.441m-737.998-5.821c.007-.582.086-.778.176-.434.089.343.083.82-.014 1.058-.096.239-.17-.042-.162-.624m738.364 0c.007-.582.086-.778.175-.434.09.343.084.82-.013 1.058-.096.239-.17-.042-.162-.624m-738.685-8.114c.003-.97.071-1.325.152-.789.082.536.08 1.33-.005 1.764-.083.434-.15-.005-.147-.975m739.07 0c.003-.97.07-1.325.152-.789s.079 1.33-.005 1.764-.15-.005-.148-.975zm-739.07-24.694c.003-.97.071-1.326.152-.79.082.537.08 1.33-.005 1.765-.083.433-.15-.005-.147-.975m739.07 0c.003-.97.07-1.326.152-.79.081.537.079 1.33-.005 1.765-.084.433-.15-.005-.148-.975zm-738.75-8.114c.008-.582.087-.778.177-.435.089.344.083.82-.014 1.059-.096.239-.17-.042-.162-.624m738.365 0c.007-.582.086-.778.175-.435.09.344.084.82-.013 1.059-.096.239-.17-.042-.162-.624m-738.024-5.468c0-.485.08-.684.177-.441.098.242.098.64 0 .882-.097.242-.177.044-.177-.441m737.658 0c0-.485.08-.684.178-.441.098.242.098.64 0 .882s-.178.044-.178-.441m-737.334-4.792c.017-.411.101-.495.214-.213.102.254.089.559-.028.676s-.2-.091-.185-.463m736.953 0c.017-.411.1-.495.213-.213.102.254.09.559-.028.676s-.2-.091-.185-.463m-736.6-3.88c.017-.412.1-.495.213-.214.102.255.09.559-.028.676s-.2-.09-.185-.463m736.247 0c.017-.412.101-.495.214-.214.101.255.089.559-.028.676-.118.117-.2-.09-.186-.463m-643.85-211.594c0-.073.278-.351.618-.617.559-.44.572-.427.133.133-.461.588-.75.774-.75.484m3.704-4.1c.352-.388.718-.706.815-.706s-.11.318-.462.706c-.351.388-.718.706-.815.706s.111-.318.462-.706m543.95-.088-.672-.794.794.672c.436.37.794.727.794.794 0 .282-.284.074-.916-.672m-538.144-5.997c1.462-1.558 1.78-1.838 1.78-1.573 0 .056-.755.81-1.677 1.675l-1.675 1.573zm532.164-.353-1.395-1.5 1.5 1.395c1.394 1.297 1.661 1.604 1.394 1.604-.058 0-.732-.675-1.5-1.5m-522.447-9.437c.757-.776 1.457-1.411 1.554-1.411s-.444.635-1.202 1.411-1.457 1.411-1.554 1.411.444-.635 1.202-1.411M13.39 12.53l-1.395-1.5 1.5 1.395c1.394 1.297 1.661 1.604 1.394 1.604-.058 0-.732-.675-1.5-1.5m-506.925-5.556c.351-.389.718-.706.815-.706s-.111.317-.462.706-.718.705-.815.705.11-.317.462-.705m500.91-.089-.671-.793.793.672c.437.37.794.726.794.793 0 .283-.284.074-.915-.672M.487.712C.047.152.06.14.619.579c.34.266.618.544.618.617 0 .29-.29.103-.751-.484m-288.24-88.877c.254-.102.558-.09.676.028s-.091.2-.463.185c-.411-.016-.495-.1-.214-.213m89.252 0c.255-.102.56-.09.676.028.118.117-.09.2-.463.185-.41-.016-.494-.1-.213-.213m-82.903-.705c.255-.102.56-.09.677.028s-.091.2-.463.185c-.411-.017-.495-.1-.214-.213m3.528-.353c.255-.102.56-.09.676.028.118.117-.09.2-.463.185-.41-.017-.494-.1-.213-.213m69.497 0c.255-.102.56-.09.677.028s-.091.2-.463.185c-.411-.017-.495-.1-.214-.213m-65.638-.345a1.36 1.36 0 0 1 .882 0c.242.097.044.177-.441.177s-.684-.08-.441-.177m61.758-.008c.255-.102.559-.09.676.028s-.091.2-.463.185c-.41-.017-.495-.1-.213-.213m-57.172-.345c.242-.098.64-.098.882 0s.044.178-.441.178-.684-.08-.441-.178m52.211 0c.243-.098.64-.098.882 0s.044.178-.441.178-.684-.08-.441-.178m-46.384-.364c.344-.09.82-.083 1.059.013.239.097-.042.17-.624.163s-.778-.086-.435-.176m40.762.004c.254-.102.558-.09.676.028s-.091.2-.463.185c-.411-.017-.495-.1-.213-.213m-32.827-.362c.44-.084 1.074-.08 1.411.008.338.088-.021.157-.797.153-.777-.004-1.053-.076-.614-.16m24.342 0c.439-.084 1.074-.08 1.411.008s-.022.157-.798.153-1.052-.076-.613-.16" style="fill:#eef77a" transform="translate(612.508 90.704)"/><path d="M-252.668 648.432c.343-.09.819-.084 1.058.013s-.042.17-.624.163-.778-.087-.434-.176m18.697 0c.343-.09.82-.084 1.058.013s-.042.17-.624.163-.778-.087-.434-.176m-28.406-.342a1.36 1.36 0 0 1 .882 0c.243.098.044.178-.44.178-.486 0-.684-.08-.442-.178m38.122-.007c.255-.102.56-.09.677.028s-.091.2-.463.185c-.411-.017-.495-.1-.214-.213m-43.744-.353c.255-.102.559-.09.676.028s-.09.2-.463.185c-.41-.017-.494-.1-.213-.213m49.742 0c.254-.102.559-.09.676.028s-.091.2-.463.185c-.411-.017-.495-.1-.213-.213m-54.68-.353c.254-.102.558-.09.675.028.118.117-.09.2-.463.185-.41-.017-.494-.1-.213-.213m-7.762-.705c.255-.102.559-.09.676.028s-.09.2-.463.185c-.41-.017-.494-.1-.213-.213M.884 556.82c0-.073.278-.351.617-.617.56-.44.572-.427.133.133-.46.587-.75.774-.75.484m-491.817-3.66c-.44-.559-.427-.571.133-.132.34.266.617.544.617.617 0 .29-.29.103-.75-.484m495.345.485c0-.073.277-.351.617-.617.56-.44.572-.427.133.133-.46.587-.75.774-.75.484m-499.39-4.188-.673-.794.794.672c.746.631.954.915.672.915-.067 0-.424-.357-.794-.793m503.8.088c.35-.388.717-.706.814-.706s-.11.318-.462.706c-.351.388-.718.705-.815.705s.111-.317.462-.705m-513.3-9.26-3.167-3.264 3.263 3.168c3.03 2.942 3.424 3.359 3.168 3.359-.053 0-1.521-1.469-3.264-3.264m522.824.088c1.738-1.747 3.24-3.175 3.337-3.175s-1.246 1.428-2.984 3.175-3.24 3.175-3.337 3.175 1.246-1.43 2.984-3.175m-531.839-9.437-.855-.97.97.855c.907.8 1.132 1.085.855 1.085-.063 0-.5-.437-.97-.97m541.012-.088c.35-.389.717-.706.814-.706s-.11.317-.462.706c-.35.388-.718.705-.815.705s.111-.317.463-.705m-544.91-4.146c-.44-.56-.427-.572.132-.133.588.461.775.75.485.75-.074 0-.351-.277-.618-.617m548.26.485c0-.074.279-.352.618-.618.56-.439.572-.426.133.133-.46.588-.75.775-.75.485m-448.799-87.244c.255-.102.56-.09.677.028s-.091.2-.463.185c-.411-.017-.495-.1-.214-.213m365.885-5.668-1.928-2.029 2.028 1.928c1.885 1.792 2.19 2.13 1.929 2.13-.056 0-.968-.914-2.029-2.03m-382.95.529-1.036-1.147 1.146 1.036c1.069.966 1.309 1.257 1.036 1.257-.06 0-.576-.516-1.146-1.146m-15.875-15.522-1.036-1.147 1.146 1.036c.63.57 1.147 1.086 1.147 1.147 0 .272-.291.032-1.257-1.036m381.714-1.764-1.75-1.852 1.852 1.75c1.018.963 1.852 1.796 1.852 1.852 0 .264-.327-.03-1.954-1.75m-397.59-13.759-1.035-1.146 1.146 1.036c1.069.966 1.309 1.257 1.036 1.257-.06 0-.576-.516-1.146-1.147m381.01-2.47-1.751-1.851 1.852 1.75c1.721 1.627 2.014 1.954 1.75 1.954-.055 0-.889-.833-1.851-1.852m-135.63-11.686c0-.073.278-.35.617-.617.56-.439.572-.426.133.133-.46.588-.75.775-.75.484m-261.254-1.366-1.036-1.146 1.146 1.036c.63.57 1.147 1.086 1.147 1.146 0 .273-.291.033-1.257-1.036m380.303-3.175-1.75-1.852 1.852 1.75c1.72 1.627 2.013 1.954 1.75 1.954-.056 0-.89-.833-1.852-1.852m-114.287.088c.352-.388.718-.705.815-.705s-.11.317-.462.705c-.351.388-.718.706-.815.706s.111-.318.462-.706m5.116-4.696c0-.06.516-.577 1.146-1.147l1.147-1.036-1.036 1.147c-.966 1.068-1.257 1.308-1.257 1.036m-8.467-29.656c0-.074.278-.351.617-.618.56-.439.572-.426.133.133-.46.588-.75.775-.75.485m4.586-4.234c0-.073.278-.35.617-.617.56-.439.572-.426.134.133-.461.588-.751.775-.751.484m16.58-16.58c0-.073.278-.351.618-.618.56-.438.572-.426.133.134-.46.587-.75.774-.75.484m4.234-4.586c0-.074.278-.351.617-.618.56-.439.572-.426.133.133-.46.588-.75.775-.75.485m3.175-3.528c0-.073.278-.351.617-.617.56-.44.572-.427.133.133-.46.587-.75.774-.75.484m-420.483-18.064c.017-.411.1-.495.213-.214.102.255.09.56-.028.677s-.2-.091-.185-.463m737.658 0c.017-.411.1-.495.213-.214.102.255.09.56-.028.677s-.2-.091-.185-.463m-738.011-5.998c.017-.41.1-.494.213-.213.102.255.09.56-.028.676-.117.118-.2-.09-.185-.463m738.364 0c.017-.41.1-.494.213-.213.102.255.09.56-.028.676-.117.118-.2-.09-.185-.463m-411.367-8.04c0-.074.278-.352.617-.618.56-.44.572-.427.134.133-.461.588-.75.774-.75.484m-327.289-1.455c.004-.776.076-1.052.16-.613.085.438.082 1.073-.006 1.41-.089.338-.158-.021-.154-.797m739.07 0c.004-.776.076-1.052.16-.613.085.438.081 1.073-.007 1.41-.088.338-.157-.021-.153-.797m-407.548-2.426c0-.074.278-.352.618-.618.56-.439.572-.426.133.133-.46.588-.75.775-.75.485m10.055-9.745c1.738-1.746 3.24-3.175 3.336-3.175.097 0-1.246 1.429-2.984 3.175s-3.24 3.175-3.336 3.175c-.097 0 1.245-1.429 2.984-3.175m-341.57-6.703c0-.873.07-1.23.153-.794a5 5 0 0 1 0 1.588c-.084.436-.153.08-.153-.794m739.07 0c0-.873.069-1.23.153-.794a5 5 0 0 1 0 1.588c-.084.436-.153.08-.153-.794m-387.975-3.175c.35-.388.717-.705.814-.705s-.11.317-.462.705c-.35.388-.718.706-.815.706s.111-.318.463-.706m-350.782-6.35c0-.485.08-.683.178-.44.098.242.098.639 0 .881-.098.243-.178.044-.178-.44m738.364 0c0-.485.08-.683.178-.44a1.37 1.37 0 0 1 0 .881c-.098.243-.178.044-.178-.44m-738.04-5.85c.018-.411.101-.495.214-.213.102.254.09.559-.028.676s-.2-.091-.185-.463m737.659 0c.017-.411.1-.495.213-.213.102.254.09.559-.028.676s-.2-.091-.185-.463m-737.306-4.939c.017-.41.101-.494.214-.213.102.255.089.559-.028.676s-.2-.091-.185-.463m736.953 0c.017-.41.1-.494.213-.213.102.255.09.559-.028.676s-.2-.091-.185-.463m-233.19-118.886c.017-.411.1-.495.213-.213.102.254.09.559-.028.676s-.2-.091-.185-.463m-3.745-9.76-1.75-1.852 1.851 1.75c1.019.963 1.852 1.797 1.852 1.852 0 .264-.326-.03-1.953-1.75m-16.58-16.228-1.751-1.852 1.852 1.75c1.72 1.627 2.014 1.954 1.75 1.954-.055 0-.889-.833-1.852-1.852m-16.581-16.228-1.75-1.852 1.851 1.75c1.721 1.627 2.014 1.954 1.75 1.954-.055 0-.888-.833-1.851-1.852m-16.58-16.228-1.751-1.852 1.852 1.751c1.72 1.627 2.013 1.954 1.75 1.954-.056 0-.889-.834-1.852-1.853m-9.633-5.203c0-.485.08-.684.178-.441s.098.64 0 .882-.178.044-.178-.441M-530.4 46.351c0-.073.277-.35.617-.617.56-.439.572-.426.133.133-.46.588-.75.775-.75.484m5.291-6.35c0-.073.278-.35.618-.617.559-.439.572-.426.133.133-.461.588-.75.775-.75.484M36.47 37.048c-.438-.56-.426-.572.134-.133.587.46.774.75.484.75-.074 0-.351-.278-.618-.617m-2.281-2.646-.672-.794.794.672c.436.37.793.727.793.794 0 .282-.284.074-.915-.672m-548.36-6.748c0-.073.278-.35.618-.617.56-.439.572-.426.133.133-.461.588-.75.775-.75.484M18.17 17.38c-1.446-1.455-2.549-2.645-2.452-2.645s1.36 1.19 2.805 2.645 2.549 2.646 2.451 2.646-1.359-1.19-2.804-2.646m-522.464 0c1.25-1.26 2.352-2.293 2.45-2.293.096 0-.847 1.032-2.097 2.293s-2.352 2.294-2.45 2.294c-.096 0 .847-1.032 2.097-2.294M9.846 9.355l-.672-.794.794.672c.436.37.794.727.794.794 0 .282-.284.074-.916-.672m-504.968-.75c0-.074.278-.352.618-.618.56-.439.572-.426.133.133-.461.588-.75.775-.75.484M4.554 4.414l-.672-.793.794.672c.437.37.794.727.794.794 0 .282-.284.074-.916-.672m-492.091-2.733c.351-.388.718-.706.815-.706s-.111.318-.462.706-.718.705-.815.705.11-.317.462-.705m11.113-9.306c0-.073.277-.35.617-.617.56-.439.572-.426.133.133-.46.588-.75.775-.75.484m466.327-.484c-.44-.56-.427-.572.133-.133.34.266.617.544.617.617 0 .29-.29.104-.75-.484M-35.1-26.54c-.317-.206-.361-.345-.109-.348a.82.82 0 0 1 .639.348c.27.438.148.438-.53 0m-178.218-63.036c.254-.102.559-.09.676.028s-.091.2-.463.185c-.411-.017-.495-.1-.213-.213M-268-89.929c.255-.101.559-.089.676.028s-.09.2-.463.186c-.41-.017-.494-.101-.213-.214m49.742 0c.254-.101.559-.089.676.028s-.091.2-.463.186c-.411-.017-.495-.101-.213-.214m-43.745-.352c.255-.102.56-.09.676.027.118.118-.09.201-.463.186-.41-.017-.494-.1-.213-.213m37.725.007a1.36 1.36 0 0 1 .882 0c.243.098.044.178-.44.178-.486 0-.684-.08-.442-.178m-28.391-.364c.343-.089.819-.083 1.058.013.239.097-.042.17-.624.163s-.778-.086-.434-.176m18.697 0c.343-.089.82-.083 1.058.013.239.097-.042.17-.624.163s-.778-.086-.434-.176" style="fill:#dae737" transform="translate(612.508 90.704)"/><path d="M-254.175 648.433c-1.649-.047-6.014-.255-9.7-.461-100.29-5.613-193.057-51.424-259.317-128.06-25.904-29.96-47.842-66.036-62.827-103.314-35.983-89.519-35.253-191.29 2.011-280.155 13.348-31.832 31.367-62.152 52.517-88.37 10.173-12.611 15.527-18.547 27.526-30.52 9.414-9.395 10.96-10.87 15.899-15.18a383 383 0 0 0 3.386-2.977c2.037-1.893 12.518-10.424 17.993-14.647 8.05-6.21 23.025-16.397 32.815-22.324 18.813-11.39 42.175-22.7 61.517-29.78 10.203-3.736 28.396-9.606 30.345-9.791.294-.028.691-.147.882-.265.565-.348 17.208-4.4 22.748-5.537 41.689-8.565 84.269-9.992 126.294-4.233 24.393 3.343 49.574 9.455 72.552 17.61 3.268 1.16 6.259 2.25 6.647 2.42.388.172 3.246 1.302 6.35 2.512s6.28 2.49 7.056 2.846 2.204.955 3.175 1.33c10.507 4.072 36.56 17.747 49.036 25.74 3.54 2.269 11.546 7.534 11.98 7.88.202.16 1.478 1.028 2.836 1.927 2.576 1.705 2.892 1.934 10.936 7.919C-14.345-11.662-.067-.083 1.942 2.026c.097.102 1.764 1.61 3.704 3.351 4.428 3.974 21.367 20.876 24.935 24.88 9.634 10.811 16.435 19.115 24.033 29.342 4.665 6.28 12.24 17.337 12.24 17.867 0 .196.145.41.324.475.36.13 1.39 1.753 7.016 11.053 15.969 26.4 29.338 57.007 38.011 87.025 17.45 60.39 19.201 124.976 5.052 186.353-14.126 61.28-43.793 117.916-86.456 165.05-5.344 5.904-21.296 21.743-27.095 26.903-31.476 28.009-65.87 49.743-104.07 65.763-48.151 20.194-100.703 29.878-153.81 28.345m-165.452-208.256c28.14-2.119 60.738-9.81 90.134-21.267 17.438-6.796 37.677-16.75 53.446-26.283 46.067-27.85 85.549-65.615 114.723-109.737 24.172-36.557 40.907-76.872 49.149-118.401 2.701-13.613 4.408-27.045 4.518-35.55l.062-4.783-30.497-29.84c-32.561-31.859-32.069-31.425-32.606-28.737-.122.606-.223 2.233-.225 3.616-.006 3.419-1.156 14.269-2.287 21.563-5.854 37.774-20.233 77.162-41.208 112.89-19.458 33.14-46.684 65.536-76.798 91.378-40.487 34.742-88.177 59.588-140.759 73.332-17.34 4.532-39.157 8.103-54.68 8.949-4.758.26-4.763.26-4.867 1.155-.09.764 1.806 2.763 12.876 13.582 7.14 6.977 16.546 16.178 20.904 20.447 17.38 17.027 23.59 23.095 26.114 25.515l2.639 2.531h2.3c1.264 0 4.442-.163 7.062-.36m372.114-.69c-.091-.872-5.362-6.187-31.045-31.309l-30.936-30.259-49.498.053c-27.224.03-49.62.07-49.769.089s-2.69 2.318-5.644 5.108c-22.198 20.956-44.926 37.97-70.55 52.81-4.052 2.346-4.497 2.701-4.497 3.581v.977h242.05z" style="fill:#e4f222" transform="translate(612.508 90.704)"/><path d="M-425.003 440.288c.439-.085 1.074-.081 1.411.007s-.022.157-.798.153-1.052-.076-.613-.16m359.83-.013 17.373-.097v-.774c0-.425-.515-1.336-1.146-2.025l-1.147-1.251 1.339 1.23c.98.902 1.31 1.467 1.234 2.117l-.103.886-17.463.005-17.462.005zm-353.815-.331c.255-.102.56-.09.676.028.118.117-.09.2-.463.185-.41-.017-.494-.1-.213-.213m4.233-.353c.255-.102.56-.09.677.028s-.091.2-.463.185c-.411-.017-.495-.1-.214-.213m-25.168-9.725-2.106-2.205 2.205 2.106c2.048 1.956 2.366 2.304 2.106 2.304-.055 0-1.047-.992-2.205-2.205m375.896-7.144c-1.446-1.455-2.55-2.646-2.452-2.646s1.359 1.19 2.804 2.646c1.446 1.455 2.55 2.646 2.452 2.646s-1.359-1.19-2.804-2.646m-391.771-8.378-2.106-2.205 2.205 2.105c2.048 1.956 2.366 2.305 2.106 2.305-.055 0-1.047-.993-2.205-2.205m375.004-8.114-2.46-2.558 2.558 2.46c1.407 1.353 2.558 2.504 2.558 2.558 0 .259-.37-.085-2.656-2.46m-390.88-7.409-2.105-2.204 2.205 2.105c2.048 1.956 2.366 2.304 2.106 2.304-.055 0-1.047-.992-2.205-2.205m246.074-5.336c0-.073.278-.351.618-.618.56-.438.572-.426.133.134-.46.587-.75.774-.75.484m127.874-3.836-2.814-2.91 2.91 2.814c2.704 2.613 3.072 3.007 2.815 3.007-.053 0-1.363-1.31-2.91-2.91m-124.699 1.014c0-.074.278-.352.618-.618.56-.439.572-.426.133.133-.46.588-.75.775-.75.485m4.41-4.1c.351-.389.718-.706.815-.706s-.11.317-.462.705c-.351.388-.718.706-.815.706s.111-.318.462-.706m-269.709-3.44-2.282-2.381 2.38 2.282c1.31 1.256 2.382 2.328 2.382 2.382 0 .26-.36-.071-2.48-2.283m274.119-.552c0-.06.516-.576 1.146-1.146l1.147-1.036-1.036 1.146c-.966 1.07-1.257 1.309-1.257 1.036m-277.847-4.122c.03-.783.193-.886 1.446-.913l1.41-.03-1.3.138c-1.006.106-1.335.314-1.446.912-.118.639-.138.62-.11-.108m7.531-1.292a1.36 1.36 0 0 1 .882 0c.242.097.044.177-.441.177s-.684-.08-.441-.177m4.608-.36c.255-.102.56-.09.676.027.118.118-.09.2-.463.186-.41-.017-.494-.1-.213-.214m3.528-.353c.255-.102.559-.09.676.028s-.091.2-.463.185c-.41-.017-.495-.1-.213-.213m8.467-1.059c.254-.102.559-.09.676.028s-.091.2-.463.186c-.411-.017-.495-.101-.213-.214m241.718-19.647c0-.074.278-.352.618-.618.56-.439.572-.426.133.133-.46.588-.75.775-.75.485m6.703-5.998c0-.073.278-.35.618-.617.56-.439.572-.426.133.133-.461.588-.75.775-.75.484m4.586-4.21c0-.06.516-.577 1.147-1.147l1.146-1.036-1.036 1.147c-.966 1.068-1.257 1.308-1.257 1.036m14.111-14.177c.659-.68 1.277-1.235 1.374-1.235s-.363.556-1.02 1.235c-.659.679-1.277 1.234-1.374 1.234s.362-.555 1.02-1.234m4.763-5.116c.351-.388.718-.705.815-.705s-.111.317-.462.705-.718.706-.815.706.11-.318.462-.706m2.999-3.308c0-.073.277-.35.617-.617.56-.439.572-.426.133.133-.46.588-.75.775-.75.484m-96.662-29.633c0-.073.278-.351.618-.617.56-.44.572-.427.133.133-.46.587-.75.774-.75.484m2.823-2.47c0-.073.278-.35.617-.617.56-.439.572-.426.133.133-.46.588-.75.775-.75.484m4.233-3.923c.456-.485.908-.882 1.005-.882s-.196.397-.652.882-.908.882-1.005.882.196-.397.652-.882m6.174-5.821c.955-.97 1.816-1.764 1.913-1.764s-.605.794-1.56 1.764-1.817 1.764-1.914 1.764.605-.794 1.56-1.764m9.686-9.613c1.462-1.558 1.779-1.838 1.779-1.573 0 .057-.754.81-1.676 1.676l-1.675 1.572zm6.189-6.615c.35-.388.718-.705.815-.705s-.111.317-.463.705c-.35.388-.717.706-.814.706s.11-.318.462-.706m2.998-3.308c0-.073.278-.351.618-.617.56-.44.572-.427.133.133-.461.587-.75.774-.75.484m2.822-3.175c0-.073.278-.351.618-.617.56-.44.572-.427.133.133-.46.587-.75.774-.75.484m145.726-120.017c.016-.411.1-.495.213-.213.102.254.09.559-.028.676s-.2-.091-.185-.463m.38-4.028c0-.485.08-.683.178-.44.098.242.098.639 0 .881-.098.243-.178.044-.178-.44m.38-5.644c0-.68.072-.957.16-.618.09.34.09.896 0 1.235-.088.34-.16.062-.16-.617m-.645-5.027-.672-.794.793.672c.437.37.794.727.794.794 0 .282-.284.074-.915-.672m-14.607-14.2c-1.446-1.455-2.549-2.645-2.452-2.645s1.36 1.19 2.805 2.645 2.548 2.646 2.451 2.646-1.359-1.19-2.804-2.646m-16.58-16.227c-1.446-1.456-2.55-2.646-2.453-2.646s1.36 1.19 2.805 2.646 2.549 2.646 2.452 2.646-1.36-1.191-2.805-2.646m-32.428-12.024c.016-.411.1-.495.213-.213.102.254.09.559-.028.676s-.2-.091-.185-.463m15.84-4.203c-1.446-1.455-2.55-2.646-2.452-2.646s1.359 1.19 2.804 2.646c1.446 1.455 2.55 2.646 2.452 2.646s-1.359-1.19-2.804-2.646m-15.495 1.029c.017-.411.1-.495.213-.213.102.254.09.559-.027.676-.118.117-.201-.091-.186-.463m.381-4.028c0-.485.08-.683.178-.44.098.242.098.639 0 .881-.098.243-.178.044-.178-.44m.386-5.468c.004-.776.076-1.052.16-.613.085.439.082 1.074-.006 1.411s-.158-.022-.154-.798" style="fill:#87900f" transform="translate(612.508 90.704)"/><path d="m-429.885 439.567-.855-.97.882.771c.583.51 1.481.818 2.646.907l1.764.135-1.79.064c-1.553.055-1.905-.066-2.647-.907m140.565.453c-.11-.285-.117-.721-.017-.97.1-.25.194-.096.21.34l.028.793 66.057.09 66.058.09-66.069.087c-57.797.076-66.094.023-66.267-.43m-131.101-.069a1.36 1.36 0 0 1 .882 0c.242.098.044.178-.441.178s-.684-.08-.441-.178m4.608-.36c.255-.102.56-.09.676.028.118.117-.09.2-.463.185-.41-.017-.494-.1-.213-.213m3.528-.353c.255-.102.559-.09.676.028s-.091.2-.463.185c-.41-.017-.495-.1-.213-.213m5.997-.705c.255-.102.56-.09.676.027.118.118-.09.201-.463.186-.41-.017-.494-.1-.213-.213m347.012-11.137-2.105-2.204 2.204 2.105c1.213 1.158 2.205 2.15 2.205 2.205 0 .26-.348-.057-2.304-2.106m-385.232-2.116-2.46-2.558 2.558 2.46c1.407 1.353 2.558 2.504 2.558 2.558 0 .258-.37-.085-2.656-2.46m368.839-13.847c-.857-.873-1.479-1.587-1.382-1.587s.878.714 1.735 1.587 1.478 1.588 1.381 1.588-.877-.715-1.734-1.588m-384.714-1.675-2.46-2.558 2.558 2.46c2.376 2.285 2.719 2.655 2.46 2.655-.054 0-1.205-1.15-2.558-2.557m-15.875-15.523-2.46-2.557 2.558 2.46c1.407 1.353 2.558 2.504 2.558 2.557 0 .259-.37-.084-2.656-2.46m384.008.97c-.856-.873-1.478-1.587-1.381-1.587s.877.714 1.734 1.587c.857.874 1.479 1.588 1.382 1.588s-.878-.714-1.735-1.588m-127.352-7.012c0-.073.278-.351.617-.617.56-.44.572-.427.133.133-.46.588-.75.774-.75.484m5.115-4.806c.351-.388.718-.705.815-.705s-.111.317-.462.705-.718.706-.815.706.11-.318.462-.706m-276.259-3.263-.672-.794.794.672c.437.37.794.727.794.794 0 .283-.284.074-.916-.672m382.25-.882-1.216-1.323 1.323 1.216c1.231 1.132 1.485 1.43 1.216 1.43-.06 0-.655-.595-1.323-1.323m-379.475-1.744c.343-.089.82-.083 1.058.014.239.096-.042.17-.624.162-.582-.007-.778-.086-.434-.175m5.483-.349c.255-.102.56-.09.676.028.118.117-.09.2-.463.185-.41-.017-.494-.1-.213-.213m4.233-.353c.255-.101.56-.089.677.028.117.118-.091.2-.463.186-.411-.017-.495-.1-.214-.214m256.536-24.586c0-.074.278-.351.617-.618.56-.438.572-.426.134.134-.461.587-.751.774-.751.484m4.41-4.1c.35-.388.718-.706.815-.706s-.111.318-.462.706-.718.705-.815.705.11-.317.462-.705m7.232-6.88c1.25-1.26 2.352-2.293 2.449-2.293s-.847 1.032-2.097 2.293-2.352 2.294-2.449 2.294.847-1.032 2.097-2.294m6.35-6.35c1.25-1.26 2.352-2.293 2.449-2.293s-.847 1.032-2.097 2.293-2.352 2.294-2.449 2.294.847-1.032 2.097-2.294m6.702-7.012c0-.073.278-.351.618-.617.56-.44.572-.427.133.133-.46.588-.75.774-.75.484m3.528-3.88c0-.074.278-.352.618-.618.56-.439.572-.426.133.133-.461.588-.75.775-.75.485m2.822-3.175c0-.074.278-.352.618-.618.56-.439.572-.426.133.133-.46.588-.75.775-.75.485m-87.665-37.262c.351-.388.718-.705.815-.705s-.11.317-.462.705c-.351.388-.718.706-.815.706s.111-.318.462-.706m14.64-14.64c.456-.485.908-.882 1.005-.882s-.196.397-.652.882c-.455.485-.908.882-1.005.882s.197-.397.652-.882m4.587-4.896c0-.073.277-.35.617-.617.56-.439.572-.426.133.133-.46.588-.75.775-.75.484m3.175-3.527c0-.074.277-.352.617-.618.56-.439.572-.426.133.133-.46.588-.75.775-.75.485m147.136-119.665c.017-.41.1-.494.213-.213.102.255.09.56-.028.676-.117.118-.2-.09-.185-.463m.353-3.528c.016-.41.1-.494.213-.213.102.255.09.56-.028.677s-.2-.092-.185-.464m.352-4.233c.017-.41.1-.494.213-.213.102.255.09.559-.027.676-.118.117-.201-.09-.186-.463m.426-7.026c.003-.97.071-1.325.152-.789.082.536.08 1.33-.005 1.764-.083.434-.15-.005-.147-.975m-10.696-12.083-1.928-2.028 2.028 1.928c1.885 1.792 2.19 2.129 1.928 2.129-.055 0-.968-.913-2.028-2.029m-16.58-16.227-1.929-2.029 2.029 1.928c1.884 1.792 2.19 2.13 1.928 2.13-.055 0-.968-.914-2.029-2.03m-16.581-16.228-1.928-2.029 2.028 1.929c1.885 1.791 2.19 2.128 1.928 2.128-.055 0-.968-.913-2.028-2.028m-19.716-6.291c.017-.411.1-.495.213-.214.102.255.09.56-.028.677s-.2-.091-.185-.463m.38-4.733c0-.486.08-.684.179-.441.098.242.098.639 0 .881-.098.243-.178.045-.178-.44m3.28-4.675-1.395-1.5 1.5 1.395c1.394 1.297 1.661 1.605 1.394 1.605-.057 0-.732-.675-1.5-1.5" style="fill:#525905" transform="translate(612.508 90.704)"/><path d="M-460.133 409.858c-22.703-22.21-31.108-30.643-31.108-31.213 0-.761.16-.791 6.438-1.215 22.85-1.541 49.617-7.007 74.7-15.253 62.128-20.424 116.225-56.932 159.624-107.725 37.528-43.922 63.315-95.211 74.76-148.7 2.574-12.027 4.588-26.536 5.032-36.249.22-4.798.264-5.026.97-5.017.973.013 2.23 1.22 44.836 43.054a3062 3062 0 0 0 12.611 12.318l4.498 4.35v3.406c0 12.481-4.117 37.813-9.203 56.63-19.115 70.711-60.829 133.539-120.136 180.943-31.603 25.26-66.458 44.601-104.224 57.836-27.23 9.542-58.996 16.156-81.845 17.04l-5.845.227zm171.034 29.533c0-.592.471-1.055 1.852-1.82 7.289-4.043 21.507-13.051 30.206-19.139 14.604-10.219 32.979-25.395 44.847-37.04l3.351-3.289 49.647-.004 49.646-.004 9.444 9.26c26.248 25.738 41.77 40.936 47.456 46.47 3.486 3.392 4.85 4.95 4.85 5.54v.819h-241.3z" style="fill:#000" transform="translate(612.508 90.704)"/></svg>