<?xml version="1.0" encoding="UTF-8"?>
<svg version="1.1" xmlns="http://www.w3.org/2000/svg" width="1082" height="1082">
<path d="M0 0 C54.25760744 -0.05141956 108.51521718 -0.09917287 162.77284241 -0.12702942 C163.57747587 -0.12744359 164.38210934 -0.12785776 165.21112564 -0.12828448 C182.70323921 -0.13726582 200.19535305 -0.14557599 217.68746727 -0.15319599 C226.26714946 -0.15693759 234.84683158 -0.16082731 243.42651367 -0.16479492 C244.28023833 -0.1651872 245.13396299 -0.16557948 246.01355809 -0.16598364 C273.62294389 -0.17873914 301.23231112 -0.2012516 328.8416857 -0.22889166 C357.24356489 -0.25727308 385.64543382 -0.27567564 414.04732695 -0.28174497 C418.07041101 -0.28260928 422.09349504 -0.28358618 426.11657906 -0.28463173 C426.90828247 -0.284834 427.69998589 -0.28503627 428.51568032 -0.28524467 C441.19582124 -0.28877259 453.87593021 -0.3026398 466.55605816 -0.3204961 C479.34268347 -0.33827727 492.1292775 -0.34487437 504.91591471 -0.34050413 C511.82822165 -0.3384408 518.74044319 -0.34105913 525.65273285 -0.35761642 C606.10621512 -0.53696317 682.88330371 11.41052258 757 44 C758.03060547 44.45213867 759.06121094 44.90427734 760.12304688 45.37011719 C804.13239343 64.82901903 846.2197259 89.84429555 883 121 C884.06605475 121.89234718 885.13248115 122.78425048 886.19921875 123.67578125 C892.23824011 128.73878139 898.17168586 133.89026957 903.9765625 139.22265625 C906.07800791 141.14759006 906.07800791 141.14759006 909 143 C909 143.66 909 144.32 909 145 C909.54366211 145.21914062 910.08732422 145.43828125 910.64746094 145.6640625 C913.77667207 147.44104915 916.12685399 149.84104975 918.640625 152.375 C919.16767029 152.90013184 919.69471558 153.42526367 920.23773193 153.96630859 C921.34616928 155.07338883 922.45210046 156.1829833 923.55566406 157.29492188 C925.25106301 159.00106975 926.9569161 160.69624047 928.6640625 162.390625 C929.74022558 163.46810892 930.81576851 164.54621267 931.890625 165.625 C932.40304749 166.13337402 932.91546997 166.64174805 933.44342041 167.16552734 C937 170.77005909 937 170.77005909 937 173 C937.66 173 938.32 173 939 173 C940.26953125 174.22265625 940.26953125 174.22265625 941.8125 176.0625 C942.43253906 176.79339844 943.05257812 177.52429688 943.69140625 178.27734375 C944.45324219 179.17582031 945.21507812 180.07429687 946 181 C946.98635522 182.12798918 947.9747847 183.2541666 948.96484375 184.37890625 C956.27559905 192.69945271 963.30569403 201.17568758 970 210 C970.53206055 210.7007666 971.06412109 211.4015332 971.61230469 212.12353516 C1027.59645355 286.21450193 1064.66668371 373.19925627 1082.3125 539.875 C1082.31034485 541.11457458 1082.3081897 542.35414917 1082.30596924 543.63128662 C1082.07078734 628.39601008 1061.80815112 710.17548961 1024 786 C1023.27127686 787.46348877 1023.27127686 787.46348877 1022.52783203 788.95654297 C1005.76889588 822.37922585 985.06235795 854.81813132 960.5078125 883.09375 C958.1292427 885.85022342 955.83969364 888.65962943 953.5625 891.5 C949.54431385 896.45163048 945.2708975 901.12577904 940.89672852 905.76171875 C938.12567668 908.64460386 938.12567668 908.64460386 936 912 C935.34 912 934.68 912 934 912 C934 912.66 934 913.32 934 914 C933.34 914 932.68 914 932 914 C931.73574219 914.5887793 931.47148438 915.17755859 931.19921875 915.78417969 C929.95631056 918.08072584 928.64993519 919.60833166 926.8125 921.453125 C926.19632813 922.071875 925.58015625 922.690625 924.9453125 923.328125 C924.30335938 923.96234375 923.66140625 924.5965625 923 925.25 C922.35804688 925.8996875 921.71609375 926.549375 921.0546875 927.21875 C920.13042969 928.13914062 920.13042969 928.13914062 919.1875 929.078125 C918.62417969 929.63918945 918.06085937 930.20025391 917.48046875 930.77832031 C916 932 916 932 914 932 C914 932.66 914 933.32 914 934 C913.34 934 912.68 934 912 934 C912 934.66 912 935.32 912 936 C910.63671875 937.375 910.63671875 937.375 908.6875 939 C905.33697623 941.84002365 902.09076071 944.75815152 898.875 947.75 C893.6671532 952.49875287 888.22300397 956.85233192 882.6484375 961.16015625 C880.22936232 963.03096799 877.84147526 964.93228548 875.4765625 966.87109375 C845.68778861 991.25520494 812.30876397 1010.75240215 778 1028 C777.10522949 1028.4547168 776.21045898 1028.90943359 775.28857422 1029.37792969 C738.31478359 1048.08409403 698.31305042 1060.82308971 658 1070 C656.93620117 1070.24443848 655.87240234 1070.48887695 654.77636719 1070.74072266 C641.49621442 1073.73912213 628.1022018 1075.81908836 614.625 1077.6875 C613.89673004 1077.79041351 613.16846008 1077.89332703 612.41812134 1077.99935913 C587.98302367 1081.41584907 563.54112448 1082.30242198 538.8970145 1082.23213124 C535.00174795 1082.22331779 531.1064859 1082.22642924 527.21121216 1082.22793579 C520.49672131 1082.22897359 513.78226999 1082.22281441 507.06778908 1082.21146011 C497.36033923 1082.19505553 487.65290806 1082.189982 477.94544586 1082.18748413 C462.18749676 1082.18313019 446.42956861 1082.16988429 430.67163086 1082.15087891 C415.38387149 1082.13246002 400.09611786 1082.11833311 384.80834961 1082.10986328 C383.86259155 1082.10933783 382.9168335 1082.10881239 381.94241611 1082.10827102 C377.19680454 1082.10566053 372.45119294 1082.10313322 367.70558131 1082.10064721 C328.47037288 1082.07998653 289.23518784 1082.04482461 250 1082 C248.74308615 1079.03175931 247.48865851 1076.06247371 246.23461914 1073.09301758 C245.88451027 1072.26630806 245.5344014 1071.43959854 245.17368317 1070.58783722 C242.11343274 1063.33593492 239.20743306 1056.02824141 236.37133789 1048.68603516 C234.32404527 1043.39375063 232.26816408 1038.1048363 230.2109375 1032.81640625 C229.68092888 1031.45295074 229.68092888 1031.45295074 229.14021301 1030.06195068 C225.64355562 1021.07139202 222.10858676 1012.09615773 218.5625 1003.125 C218.26008392 1002.35966949 217.95766785 1001.59433899 217.64608765 1000.80581665 C215.76532495 996.04646656 213.88322248 991.28764737 212.00054932 986.52905273 C209.11724792 979.24103488 206.23510668 971.95255801 203.35293579 964.66409302 C202.61857338 962.80704468 201.88417811 960.95000932 201.14974976 959.09298706 C196.45199863 947.21404406 191.76577901 935.3307386 187.10058594 923.43896484 C183.24753688 913.62051316 179.37459235 903.80996616 175.5 894 C170.72226258 881.90315964 165.95443353 869.80256254 161.203125 857.6953125 C157.31491071 847.79180199 153.40818335 837.89564343 149.5 828 C141.77334481 808.43391015 134.07851431 788.8554779 126.40234375 769.26953125 C115.31784582 740.98863458 104.20255642 712.72034549 93.02232361 684.47715759 C91.28532377 680.08909347 89.54877102 675.70085255 87.8125 671.3125 C87.46355682 670.4305899 87.11461365 669.54867981 86.75509644 668.64004517 C80.76628883 653.5004536 74.81476469 638.34639196 68.875 623.1875 C63.03592251 608.28568765 57.19155395 593.38609284 51.3125 578.5 C50.86878555 577.37632523 50.86878555 577.37632523 50.41610718 576.22994995 C47.20405775 568.09680087 43.98690557 559.96568082 40.76589966 551.83607483 C26.73056547 516.41120105 26.73056547 516.41120105 20.9375 501.4375 C20.32007935 499.85050293 20.32007935 499.85050293 19.69018555 498.23144531 C19.14551636 496.81557129 19.14551636 496.81557129 18.58984375 495.37109375 C18.27909912 494.56599365 17.96835449 493.76089355 17.64819336 492.93139648 C17 491 17 491 17 489 C76.07 489 135.14 489 196 489 C192.04 479.1 188.08 469.2 184 459 C182.081875 454.194375 180.16375 449.38875 178.1875 444.4375 C173.52471254 432.7665994 168.80712758 421.11855802 164.07565308 409.47537231 C158.24799528 395.1294781 152.49322531 380.75487401 146.75 366.375 C140.8237882 351.53864373 134.87646705 336.71283359 128.828125 321.92578125 C125.05099193 312.6885925 121.30730079 303.43783175 117.5625 294.1875 C117.19357635 293.27626373 116.82465271 292.36502747 116.44454956 291.42617798 C111.41201091 278.99285531 106.40971793 266.54804398 101.43969727 254.08959961 C97.35760752 243.8675071 93.21826263 233.66919223 89.07427979 223.47207642 C83.24709046 209.1272769 77.49278372 194.75376835 71.75 180.375 C65.81338234 165.51259251 59.85457692 150.66118447 53.796875 135.84765625 C50.20040653 127.05171435 46.62989855 118.24526379 43.0625 109.4375 C42.70779633 108.56181366 42.35309265 107.68612732 41.98764038 106.78390503 C34.95783894 89.42154758 28.00145879 72.03003762 21.05908203 54.63256836 C17.53432053 45.80381182 14.00921409 36.97599898 10.39453125 28.18359375 C10.13246887 27.54543228 9.87040649 26.90727081 9.60040283 26.24977112 C8.45963986 23.47476519 7.313171 20.70235458 6.15673828 17.93383789 C5.77372559 17.00692139 5.39071289 16.08000488 4.99609375 15.125 C4.67825928 14.36445313 4.3604248 13.60390625 4.03295898 12.8203125 C3.06353203 10.17346301 2.23920555 7.52474751 1.43544006 4.82373047 C1.1663234 3.92105438 0.89720675 3.0183783 0.61993504 2.08834839 C0.41535647 1.39919342 0.21077791 0.71003845 0 0 Z " fill="#E73137" transform="translate(0,0)"/>
<path d="M0 0 C1.17032587 -0.01104769 2.34065174 -0.02209538 3.54644203 -0.03347784 C4.82804396 -0.02523708 6.10964588 -0.01699631 7.43008423 -0.00850582 C8.80852693 -0.01383124 10.18696382 -0.0208969 11.56538963 -0.02955288 C15.35269007 -0.04820798 19.13960025 -0.04186558 22.92691708 -0.03139985 C27.01152407 -0.02441596 31.09605023 -0.04039953 35.18063354 -0.05339718 C43.18210153 -0.07505562 51.18342739 -0.07490566 59.18491507 -0.06677163 C65.68696053 -0.06047583 72.1889645 -0.06160481 78.69100952 -0.06804371 C79.61585911 -0.06894536 80.5407087 -0.06984702 81.49358404 -0.070776 C83.37230572 -0.07262717 85.2510274 -0.07448973 87.12974906 -0.07636356 C104.753055 -0.09294827 122.37628092 -0.08421692 139.99958205 -0.06737798 C156.12993993 -0.05267849 172.26011158 -0.06731172 188.39044547 -0.09614814 C204.94645994 -0.12552556 221.50238841 -0.13651938 238.05842781 -0.12696594 C239.93029911 -0.12594337 241.80217042 -0.12494876 243.67404175 -0.12398243 C244.59507608 -0.12350604 245.51611041 -0.12302965 246.46505487 -0.12253882 C252.96049081 -0.12037261 259.45584551 -0.13018971 265.95126343 -0.14475346 C273.86535628 -0.16225031 281.7792116 -0.16219755 289.693295 -0.1394018 C293.73247619 -0.1282357 297.7712385 -0.12515018 301.81040192 -0.14370251 C305.5066544 -0.16046162 309.20212119 -0.15421964 312.89832234 -0.12948572 C314.87176081 -0.12226256 316.8452417 -0.1396728 318.81860924 -0.15789706 C327.33202611 -0.0675342 327.33202611 -0.0675342 331.4716568 2.72479343 C333.29842609 5.69457759 333.80679517 7.18540162 333.8039856 10.63617802 C333.8151944 11.64696918 333.8264032 12.65776035 333.83795166 13.69918156 C333.82468842 14.79700962 333.81142517 15.89483768 333.79776001 17.02593327 C333.80330902 18.19066669 333.80885803 19.35540012 333.8145752 20.5554285 C333.82638581 24.40530884 333.80208102 28.2540161 333.77627563 32.10381413 C333.77456498 34.77753222 333.77452655 37.45120397 333.77639771 40.12491703 C333.77634417 45.72780954 333.75661013 51.33036436 333.72451782 56.93315983 C333.6876085 63.4083578 333.67884507 69.88311383 333.68581533 76.35840327 C333.69212249 82.59216304 333.68136335 88.82577147 333.66184998 95.05950069 C333.6548098 97.71051067 333.65169667 100.36153403 333.65254211 103.01255322 C333.65074837 106.71387487 333.62940202 110.41456437 333.60244751 114.11577702 C333.60537811 115.21562931 333.60830872 116.31548161 333.61132812 117.44866276 C333.59430344 118.96061977 333.59430344 118.96061977 333.57693481 120.50312138 C333.5732061 121.37786138 333.56947739 122.25260138 333.56563568 123.15384865 C333.09603501 126.03721334 332.18350528 127.4005345 330.18252563 129.50615788 C326.53784959 130.72104989 323.19538831 130.64958009 319.40103149 130.64418888 C318.19979723 130.6484208 318.19979723 130.6484208 316.97429562 130.65273821 C314.28197715 130.66109337 311.58969976 130.66242323 308.89736938 130.66387272 C306.97078332 130.66854014 305.04419837 130.67368359 303.11761475 130.67926884 C298.964621 130.69055505 294.81163447 130.69898659 290.65863037 130.70538807 C284.09617425 130.71605467 277.53376993 130.73629466 270.97134399 130.75850773 C252.30901452 130.82048121 233.64668824 130.87449344 214.98428345 130.90752506 C204.68055187 130.92584245 194.37690712 130.95473955 184.07323933 130.99552977 C178.61761099 131.01664367 173.16209226 131.03206327 167.7064209 131.03433704 C162.57806511 131.03647696 157.44993775 131.05227886 152.32165146 131.07872677 C150.43622978 131.08594562 148.55078051 131.0880083 146.66534805 131.08462429 C144.09796515 131.08075128 141.53131968 131.09511293 138.96401978 131.11415958 C138.21217879 131.10862989 137.46033781 131.10310019 136.68571377 131.09740293 C133.81882707 131.13429911 131.69099777 131.19046112 129.21999168 132.72464275 C127.85175636 135.07414799 127.80507532 136.68423724 127.80157471 139.40239811 C127.7888855 140.91662861 127.7888855 140.91662861 127.77593994 142.46144962 C127.78201263 143.56803928 127.78808533 144.67462894 127.79434204 145.81475163 C127.78908508 146.98079929 127.78382813 148.14684696 127.77841187 149.34822941 C127.76517755 153.21350736 127.77396245 157.07837553 127.78408813 160.94365788 C127.78206839 163.6226182 127.77916268 166.30156593 127.77539062 168.98052311 C127.76993143 174.599465 127.7771289 180.21828863 127.79141235 185.83721256 C127.8077393 192.33508977 127.8024509 198.8326846 127.78593314 205.33055496 C127.77232285 210.90771084 127.77039633 216.48478166 127.77824914 222.06194878 C127.78292824 225.39373861 127.78236779 228.72536645 127.77363968 232.05715275 C127.7660469 235.77081926 127.77759969 239.48393852 127.79434204 243.19756413 C127.785233 244.85744862 127.785233 244.85744862 127.77593994 246.55086613 C127.78439941 247.56035313 127.79285889 248.56984013 127.80157471 249.60991764 C127.80270578 250.48817707 127.80383686 251.3664365 127.80500221 252.27130985 C128.0404134 254.53160985 128.0404134 254.53160985 129.29871273 256.28851414 C132.10496678 258.10239792 134.38110909 257.88271481 137.70448303 257.88469791 C138.7025231 257.89149311 138.7025231 257.89149311 139.7207256 257.89842558 C141.95485343 257.91007218 144.18838513 257.90039394 146.42251587 257.8909235 C148.02236315 257.89502759 149.62220745 257.90048749 151.2220459 257.90720463 C154.66954185 257.91894245 158.11687765 257.92140943 161.56439018 257.91684818 C167.01401344 257.91005064 172.46342517 257.92588552 177.91300964 257.94524479 C189.48200354 257.98313833 201.05097919 257.99590581 212.62002563 258.00615788 C225.105342 258.0172243 237.59056141 258.03253277 250.07581097 258.07687044 C255.49476133 258.09525304 260.91347088 258.09910962 266.33244503 258.09193516 C269.70219449 258.09041531 273.07182305 258.10118453 276.44153976 258.11531353 C278.00565066 258.11932255 279.5697844 258.11818033 281.13388634 258.11154079 C283.26741575 258.10317891 285.40010595 258.11312594 287.53358459 258.12761784 C288.72801902 258.12833035 289.92245344 258.12904285 291.15308285 258.12977695 C294.50632931 258.54638756 295.9214406 259.00322795 298.18252563 261.50615788 C298.6858902 263.7850647 298.6858902 263.7850647 298.69046021 266.50956059 C298.70737915 268.05948704 298.70737915 268.05948704 298.72463989 269.64072514 C298.71249451 271.34033138 298.71249451 271.34033138 298.70010376 273.07427311 C298.71061768 274.86482624 298.71061768 274.86482624 298.72134399 276.69155216 C298.73594758 279.96655025 298.73250359 283.24090322 298.71982765 286.51589179 C298.70970545 289.94267914 298.71909136 293.36942317 298.72537231 296.7962122 C298.73265203 302.55222665 298.72305375 308.3080359 298.70401001 314.0640192 C298.68225071 320.71758977 298.68928403 327.37066988 298.71131563 334.02422851 C298.72947293 339.73644883 298.73202611 345.44852156 298.72156096 351.16076142 C298.7153264 354.57253434 298.71448882 357.98407683 298.72770691 361.39583492 C298.73784242 365.20044524 298.72241082 369.0041085 298.70010376 372.80864811 C298.70820068 373.93969471 298.71629761 375.07074131 298.72463989 376.23606205 C298.7133606 377.27216618 298.7020813 378.3082703 298.69046021 379.37577152 C298.68819805 380.72496253 298.68819805 380.72496253 298.6858902 382.10140991 C297.99377755 385.40787327 296.91775538 386.54528532 294.18252563 388.50615788 C291.13467216 389.00837994 291.13467216 389.00837994 287.4888916 389.01168156 C286.81718245 389.01777168 286.14547329 389.0238618 285.45340931 389.03013647 C283.20374528 389.04574685 280.95514435 389.03294526 278.70547485 389.02031803 C277.09238007 389.02577818 275.47929047 389.03301921 273.86621094 389.04190922 C270.39358581 389.05725291 266.92125615 389.06004583 263.44860458 389.0531435 C257.96161053 389.04237191 252.4749263 389.05972008 246.98797607 389.08095646 C238.31356553 389.11122455 229.63924658 389.12291232 220.9647876 389.12653291 C205.41961998 389.13318214 189.87451537 389.16209374 174.32942593 389.21162927 C168.87064874 389.22816619 163.41200471 389.23353655 157.95320487 389.23003888 C154.56391611 389.22960309 151.17467802 389.23714752 147.78540421 389.24671459 C146.20916193 389.24940633 144.6329095 389.24863059 143.05667114 389.24420452 C140.9117143 389.23859609 138.76712728 389.24507283 136.62219238 389.25460148 C134.81866208 389.2551047 134.81866208 389.2551047 132.97869682 389.2556181 C130.04385418 389.21737557 130.04385418 389.21737557 128.18252563 391.50615788 C127.88106892 393.4209655 127.88106892 393.4209655 127.93198586 395.64542294 C127.92698716 396.51778713 127.92198846 397.39015133 127.91683829 398.2889508 C127.9215015 399.25313371 127.92616472 400.21731663 127.93096924 401.2107172 C127.9279991 402.23049188 127.92502896 403.25026655 127.92196882 404.30094349 C127.91429047 407.74033532 127.9208385 411.17955831 127.92715454 414.61895084 C127.92440646 417.07577983 127.92072769 419.53260792 127.91618347 421.98943424 C127.90805388 427.29108279 127.90574514 432.59268695 127.90813065 437.89433765 C127.91122337 445.56405518 127.89960673 453.23369866 127.88358085 460.90339758 C127.85759999 473.35186965 127.83759101 485.80034178 127.8241272 498.24883366 C127.82291164 499.36704383 127.82291164 499.36704383 127.82167153 500.50784411 C127.81045011 511.0870851 127.80516914 521.66632083 127.8022844 532.24556698 C127.80208042 532.99043405 127.80187643 533.73530111 127.80166626 534.50273991 C127.80146632 535.24670174 127.80126639 535.99066358 127.80106039 536.75716971 C127.7973296 549.1557885 127.77825843 561.55432712 127.7465719 573.95290577 C127.72763622 581.60435303 127.72170866 589.25559494 127.73238908 596.90705921 C127.73944507 602.76808827 127.72595629 608.62895415 127.70477104 614.48995304 C127.69943028 616.89742985 127.70097774 619.30493294 127.70980644 621.71239948 C127.72086332 624.99115827 127.70757006 628.26893321 127.68804932 631.54763126 C127.69717397 632.50735273 127.70629863 633.4670742 127.71569979 634.45587814 C127.64179912 640.80525255 127.64179912 640.80525255 125.48497486 644.09681988 C122.70894521 645.79603827 121.08417088 646.00889024 117.83781433 646.01409245 C116.7541156 646.02537174 115.67041687 646.03665104 114.55387878 646.04827213 C112.77786537 646.03612675 112.77786537 646.03612675 110.9659729 646.023736 C109.08982803 646.03424992 109.08982803 646.03424992 107.17578125 646.04497623 C103.74776595 646.05956772 100.32071605 646.0561441 96.89275479 646.04345989 C93.30361721 646.03332775 89.71452068 646.04272636 86.12538147 646.04900455 C80.09707236 646.05628132 74.06895928 646.04669365 68.04067993 646.02764225 C61.07526345 646.00588311 54.11031548 646.01291743 47.1449104 646.03494787 C41.16174552 646.053113 35.17872153 646.05565453 29.19553798 646.0451932 C25.62334355 646.03896303 22.05136914 646.03810906 18.47918892 646.05133915 C14.49543242 646.06506285 10.51219846 646.04602957 6.5284729 646.023736 C5.34648819 646.03183292 4.16450348 646.03992985 2.94670105 646.04827213 C1.8601825 646.03699284 0.77366394 646.02571354 -0.34577942 646.01409245 C-1.28726554 646.01258434 -2.22875166 646.01107624 -3.19876766 646.00952244 C-6.88943072 645.30010775 -8.27332312 644.31237933 -10.81747437 641.50615788 C-11.58423837 638.04131912 -11.48765173 634.61309074 -11.44668007 631.07687473 C-11.45394727 629.9979637 -11.46121448 628.91905268 -11.4687019 627.80744737 C-11.48707428 624.16097527 -11.46953853 620.51553885 -11.45239258 616.86907291 C-11.45814888 614.24096813 -11.46608667 611.61286735 -11.4760288 608.98477507 C-11.49412048 603.25478577 -11.49351934 597.52503182 -11.480793 591.79503155 C-11.46192016 583.27453093 -11.47152848 574.75422972 -11.48683454 566.23373054 C-11.51319861 551.01830225 -11.51086728 535.80297876 -11.49643997 520.58754043 C-11.48387618 507.27250391 -11.48057214 493.95750587 -11.48655319 480.64246464 C-11.48693512 479.7602172 -11.48731704 478.87796976 -11.48771054 477.96898754 C-11.48926716 474.38791231 -11.49085916 470.80683709 -11.49250936 467.2257619 C-11.5078141 433.61310868 -11.49392164 400.00052232 -11.46702488 366.38787941 C-11.44329576 336.50653407 -11.44541885 306.62529525 -11.46932983 276.74395084 C-11.4960866 243.19389158 -11.50672882 209.64389141 -11.49126852 176.09382296 C-11.48966486 172.51916569 -11.48810066 168.9445084 -11.48655319 165.36985111 C-11.48615781 164.48963995 -11.48576242 163.60942879 -11.48535505 162.70254456 C-11.4796609 149.39388683 -11.48633167 136.08527174 -11.49895096 122.77661991 C-11.51322384 107.64835225 -11.50972333 92.52020605 -11.48254724 77.39195359 C-11.46782951 68.9187965 -11.46695923 60.44590222 -11.48577811 51.97275177 C-11.49825918 45.65831519 -11.48479274 39.34419109 -11.46090524 33.02979296 C-11.45528965 30.46593254 -11.45822882 27.90203719 -11.47028418 25.33819896 C-11.48534874 21.87009991 -11.47003956 18.40346192 -11.44668007 14.93544102 C-11.46423882 13.41996612 -11.46423882 13.41996612 -11.48215228 11.87387556 C-11.39141452 5.19734341 -11.39141452 5.19734341 -8.64174116 1.88596255 C-5.4878433 0.34511555 -3.49931891 0.00412808 0 0 Z " fill="#FEFEFE" transform="translate(422.8174743652344,230.49384212493896)"/>
</svg>
