<?xml version="1.0" encoding="UTF-8"?>
<svg version="1.1" xmlns="http://www.w3.org/2000/svg" width="256" height="127">
<path d="M0 0 C84.48 0 168.96 0 256 0 C254.02 2.31 252.04 4.62 250 7 C248.52541476 8.79332011 247.05767781 10.59229819 245.59759521 12.39744568 C230.23262449 31.27269411 214.26416691 49.55906708 197.75 67.4375 C197.09715153 68.14605511 196.44430305 68.85461021 195.7716713 69.58463669 C166.49602592 101.29031718 138.0974337 131.40720692 93.109375 134.94140625 C92.41391477 134.9993929 91.71845453 135.05737955 91.00191975 135.11712337 C60.72684002 137.49945373 29.53887156 130.85289629 0 127 C0 85.09 0 43.18 0 0 Z " fill="#028ECF" transform="translate(0,0)"/>
<path d="M0 0 C0.87624023 0.01579102 1.75248047 0.03158203 2.65527344 0.04785156 C12.46851791 0.30619059 20.50986245 1.49850705 29.125 6.375 C27.75212658 10.07376091 26.06144547 13.3264476 24 16.6875 C23.46117187 17.57050781 22.92234375 18.45351563 22.3671875 19.36328125 C21.95726562 20.02714844 21.54734375 20.69101562 21.125 21.375 C18.39340574 20.89295395 15.93244172 20.30292511 13.328125 19.328125 C9.40930742 18.16203782 5.93540604 18.08038015 1.875 18.125 C1.15570313 18.11726563 0.43640625 18.10953125 -0.3046875 18.1015625 C-4.55155306 17.98292093 -4.55155306 17.98292093 -7.875 20.375 C-7.92354891 22.90569851 -7.92354891 22.90569851 -6.875 25.375 C-4.81122908 26.90120871 -4.81122908 26.90120871 -2.125 27.875 C-0.63613281 28.49568359 -0.63613281 28.49568359 0.8828125 29.12890625 C3.0589938 29.965294 5.24148426 30.78543334 7.4296875 31.58984375 C24.38001424 37.8315523 24.38001424 37.8315523 28.6875 45.25 C29.161875 46.28125 29.63625 47.3125 30.125 48.375 C34.41356882 38.4177742 38.19002888 28.29477892 41.9375 18.125 C42.54079059 16.49340636 43.14430472 14.86189535 43.74804688 13.23046875 C45.21001806 9.2797373 46.66740726 5.32735981 48.125 1.375 C55.715 1.375 63.305 1.375 71.125 1.375 C76.15180749 12.91583614 80.2536905 24.75856736 84.4375 36.625 C86.974375 43.8025 89.51125 50.98 92.125 58.375 C92.455 39.565 92.785 20.755 93.125 1.375 C98.466875 1.313125 103.80875 1.25125 109.3125 1.1875 C110.96918701 1.16018799 112.62587402 1.13287598 114.33276367 1.10473633 C125.61469106 0.99584509 137.51386531 1.10353134 146.5390625 8.7578125 C152.73061602 15.07136707 153.4375 21.36918535 153.4375 29.89404297 C153.28652469 37.96607538 151.33760932 42.45661754 145.5625 48.125 C135.8144362 55.94133739 126.04645013 55.78257094 114.125 55.375 C114.125 63.295 114.125 71.215 114.125 79.375 C101.585 79.375 89.045 79.375 76.125 79.375 C75.135 76.075 74.145 72.775 73.125 69.375 C64.215 69.375 55.305 69.375 46.125 69.375 C45.135 72.675 44.145 75.975 43.125 79.375 C35.535 79.375 27.945 79.375 20.125 79.375 C20.455 77.725 20.785 76.075 21.125 74.375 C20.43792969 74.72433594 19.75085937 75.07367188 19.04296875 75.43359375 C18.14191406 75.88863281 17.24085937 76.34367187 16.3125 76.8125 C15.41917969 77.26496094 14.52585938 77.71742187 13.60546875 78.18359375 C4.23135589 82.6861204 -10.19198396 81.7376567 -19.875 78.5625 C-23.44873785 77.17448574 -26.62351912 75.40136934 -29.875 73.375 C-28.32954854 67.89567211 -25.71956788 63.26070819 -22.875 58.375 C-17.18056309 60.22900271 -17.18056309 60.22900271 -14.67578125 61.42578125 C-11.02473834 62.66316399 -7.55963233 62.70484805 -3.75 62.6875 C-3.03457031 62.70361328 -2.31914062 62.71972656 -1.58203125 62.73632812 C2.50506255 62.74783634 2.50506255 62.74783634 6.1015625 61.0078125 C7.30911884 59.34847083 7.30911884 59.34847083 7.375 56.9375 C5.29935459 52.68242692 1.40504343 51.96505608 -2.875 50.375 C-23.63540903 42.58152025 -23.63540903 42.58152025 -28.375 34.8125 C-30.99588211 28.6892732 -31.30724016 21.17805472 -28.95703125 14.9375 C-22.61516732 4.10091697 -12.08820256 -0.37790213 0 0 Z " fill="#FCFDFE" transform="translate(33.875,22.625)"/>
<path d="M0 0 C12.79310345 0 12.79310345 0 17.9375 4.8125 C19.40158957 7.82680206 19.46518552 9.67724626 19 13 C17.19424449 16.61151101 15.92892226 18.52473745 12.3125 20.375 C9 21 9 21 0 21 C0 14.07 0 7.14 0 0 Z " fill="#098DCE" transform="translate(148,40)"/>
<path d="M0 0 C2 1 2 1 2.77783203 2.88598633 C3.01872559 3.69318115 3.25961914 4.50037598 3.5078125 5.33203125 C3.77207031 6.21310547 4.03632812 7.09417969 4.30859375 8.00195312 C4.57800781 8.92943359 4.84742187 9.85691406 5.125 10.8125 C5.40214844 11.72837891 5.67929688 12.64425781 5.96484375 13.58789062 C7.15675949 17.61867955 8 20.75272955 8 25 C5.52621876 26.23689062 3.82084683 26.13310087 1.0625 26.125 C0.18722656 26.12757812 -0.68804687 26.13015625 -1.58984375 26.1328125 C-4 26 -4 26 -7 25 C-6.38574623 19.2073537 -4.84466956 14.05390934 -2.9375 8.5625 C-2.65583984 7.73556641 -2.37417969 6.90863281 -2.08398438 6.05664062 C-1.39482208 4.03587662 -0.6981769 2.01766718 0 0 Z " fill="#0D86C7" transform="translate(93,49)"/>
</svg>
